<?xml version="1.0" standalone="no"?><!DOCTYPE svg PUBLIC "-//W3C//DTD SVG 1.1//EN" "http://www.w3.org/Graphics/SVG/1.1/DTD/svg11.dtd"><svg t="1681384065889" class="icon" viewBox="0 0 1024 1024" version="1.1" xmlns="http://www.w3.org/2000/svg" p-id="1239" xmlns:xlink="http://www.w3.org/1999/xlink" width="200" height="200"><path d="M599 794.9H425c-32 0-58-26-58-58v-43.5c0-16 13-29 29-29s29 13 29 29v43.5h174v-43.5c0-16 13-29 29-29s29 13 29 29v43.5c0.1 31.9-26 58-58 58z m-14.5 94.6h-145c-16 0-29-13-29-29s13-29 29-29h145.1c16 0 29 13 29 29-0.1 16-13 29-29.1 29z m0 0" fill="#ffffff" p-id="1240"></path><path d="M628.1 720.9c-11.2 0-21.8-6.5-26.6-17.4-6.4-14.7 0.3-31.8 15-38.2 87.7-38.3 142.2-125 142.2-226.1 0-136-110.6-246.6-246.6-246.6S265.4 303.2 265.4 439.2c0 101.1 54.5 187.8 142.2 226.1 14.7 6.4 21.4 23.5 15 38.2-6.4 14.7-23.5 21.4-38.2 15-109.2-47.7-177-154.7-177-279.3 0-168 136.7-304.6 304.6-304.6 168 0 304.6 136.7 304.6 304.6 0 124.6-67.8 231.6-177 279.3-3.6 1.5-7.5 2.4-11.5 2.4z m0 0" fill="#ffffff" p-id="1241"></path><path d="M403.2 417.7h-72.5c0-92 74.8-166.8 166.8-166.8v72.5c-52 0-94.3 42.3-94.3 94.3z m0 0" fill="#ffffff" p-id="1242"></path></svg>