<?xml version="1.0" standalone="no"?><!DOCTYPE svg PUBLIC "-//W3C//DTD SVG 1.1//EN" "http://www.w3.org/Graphics/SVG/1.1/DTD/svg11.dtd"><svg t="1681383969822" class="icon" viewBox="0 0 1024 1024" version="1.1" xmlns="http://www.w3.org/2000/svg" p-id="1044" xmlns:xlink="http://www.w3.org/1999/xlink" width="200" height="200"><path d="M511.8 846c-15.7 0-30.4-6.1-41.4-17.3l-272.9-276C149.3 504 126.9 436.6 136 367.9c9-68.2 48.6-127.4 108.6-162.4 84.1-49 193.4-32.1 265.8 41.2l1.4 1.4 1.4-1.4c72.5-73.3 181.8-90.2 265.8-41.2 60 35 99.6 94.2 108.6 162.4 9.1 68.7-13.3 136.1-61.5 184.8l-272.9 276c-11 11.2-25.7 17.3-41.4 17.3zM348.7 235.7c-26 0-51.7 6.5-74.8 20-44.4 25.9-73.7 69.6-80.3 119.8-6.7 50.8 9.8 100.5 45.2 136.4l272.9 276 273-276c35.5-35.9 51.9-85.6 45.2-136.4-6.6-50.3-35.9-93.9-80.3-119.8-61.2-35.7-141.4-22.6-195.2 31.8l-22 22.3c-10.9 11-30.4 11-41.3 0l-22-22.3c-33.5-34-77.3-51.8-120.4-51.8z m456.7 296.6h0.1-0.1z m0 0" fill="#ffffff" p-id="1045"></path><path d="M468.9 541.1l-51.4 51.4-143.8-143.9c-22.7-22.7-22.7-59.5 0-82.2l10.3-10.3 184.9 185z m0 0" fill="#ffffff" p-id="1046"></path></svg>